<?xml version="1.0" encoding="UTF-8" standalone="no"?>
<svg
   xmlns:dc="http://purl.org/dc/elements/1.1/"
   xmlns:cc="http://creativecommons.org/ns#"
   xmlns:rdf="http://www.w3.org/1999/02/22-rdf-syntax-ns#"
   xmlns:svg="http://www.w3.org/2000/svg"
   xmlns="http://www.w3.org/2000/svg"
   xmlns:sodipodi="http://sodipodi.sourceforge.net/DTD/sodipodi-0.dtd"
   xmlns:inkscape="http://www.inkscape.org/namespaces/inkscape"
   width="126mm"
   height="393mm"
   viewBox="0 0 126 393"
   version="1.1"
   preserveAspectRatio="xMidYMid meet"
   id="svg15"
   sodipodi:docname="box.svg"
   inkscape:version="0.92.4 (5da689c313, 2019-01-14)">
  <metadata
     id="metadata21">
    <rdf:RDF>
      <cc:Work
         rdf:about="">
        <dc:format>image/svg+xml</dc:format>
        <dc:type
           rdf:resource="http://purl.org/dc/dcmitype/StillImage" />
      </cc:Work>
    </rdf:RDF>
  </metadata>
  <defs
     id="defs19" />
  <sodipodi:namedview
     pagecolor="#ffffff"
     bordercolor="#666666"
     borderopacity="1"
     objecttolerance="10"
     gridtolerance="10"
     guidetolerance="10"
     inkscape:pageopacity="0"
     inkscape:pageshadow="2"
     inkscape:window-width="1920"
     inkscape:window-height="1001"
     id="namedview17"
     showgrid="false"
     inkscape:zoom="0.44939365"
     inkscape:cx="259.31083"
     inkscape:cy="689.33079"
     inkscape:window-x="-9"
     inkscape:window-y="-9"
     inkscape:window-maximized="1"
     inkscape:current-layer="svgGroup" />
  <g
     id="svgGroup"
     stroke-linecap="round"
     fill-rule="evenodd"
     font-size="9pt"
     stroke="#000"
     stroke-width="0.25mm"
     fill="none"
     style="stroke:#000;stroke-width:0.25mm;fill:none">
    <path
       d="M 0 198 L 0 214.5 L 3 214.5 L 3 232.5 L 0 232.5 L 0 250.5 L 3 250.5 L 3 268.5 L 0 268.5 L 0 286.5 L 3 286.5 L 3 304.5 L 0 304.5 L 0 322.5 L 3 322.5 L 3 340.5 L 0 340.5 L 0 358.5 L 3 358.5 L 3 376.5 L 0 376.5 L 0 393 L 11 393 L 11 390 L 29 390 L 29 393 L 40 393 L 40 376.5 L 37 376.5 L 37 358.5 L 40 358.5 L 40 340.5 L 37 340.5 L 37 322.5 L 40 322.5 L 40 304.5 L 37 304.5 L 37 286.5 L 40 286.5 L 40 268.5 L 37 268.5 L 37 250.5 L 40 250.5 L 40 232.5 L 37 232.5 L 37 214.5 L 40 214.5 L 40 198 L 29 198 L 29 201 L 11 201 L 11 198 L 0 198 Z"
       id="front_outsideCutPath"
       stroke="#FF0000"
       stroke-width="0.1"
       style="stroke:#000000;stroke-width:0.0254;stroke-opacity:1;stroke-miterlimit:4;stroke-dasharray:none"
       vector-effect="non-scaling-stroke" />
    <path
       d="M 46 198 L 46 214.5 L 43 214.5 L 43 232.5 L 46 232.5 L 46 250.5 L 43 250.5 L 43 268.5 L 46 268.5 L 46 286.5 L 43 286.5 L 43 304.5 L 46 304.5 L 46 322.5 L 43 322.5 L 43 340.5 L 46 340.5 L 46 358.5 L 43 358.5 L 43 376.5 L 46 376.5 L 46 393 L 54 393 L 54 390 L 72 390 L 72 393 L 80 393 L 80 376.5 L 83 376.5 L 83 358.5 L 80 358.5 L 80 340.5 L 83 340.5 L 83 322.5 L 80 322.5 L 80 304.5 L 83 304.5 L 83 286.5 L 80 286.5 L 80 268.5 L 83 268.5 L 83 250.5 L 80 250.5 L 80 232.5 L 83 232.5 L 83 214.5 L 80 214.5 L 80 198 L 72 198 L 72 201 L 54 201 L 54 198 L 46 198 Z"
       id="left_outsideCutPath"
       stroke="#FF0000"
       stroke-width="0.1"
       style="stroke:#000000;stroke-width:0.0254;stroke-opacity:1;stroke-miterlimit:4;stroke-dasharray:none"
       vector-effect="non-scaling-stroke" />
    <path
       d="M 89 356 L 89 364 L 86 364 L 86 382 L 89 382 L 89 390 L 97 390 L 97 393 L 115 393 L 115 390 L 123 390 L 123 382 L 126 382 L 126 364 L 123 364 L 123 356 L 115 356 L 115 353 L 97 353 L 97 356 L 89 356 Z"
       id="top_outsideCutPath"
       stroke="#FF0000"
       stroke-width="0.1"
       style="stroke:#000000;stroke-width:0.0254;stroke-opacity:1;stroke-miterlimit:4;stroke-dasharray:none"
       vector-effect="non-scaling-stroke" />
    <path
       d="M 0 0 L 0 16.5 L 3 16.5 L 3 34.5 L 0 34.5 L 0 52.5 L 3 52.5 L 3 70.5 L 0 70.5 L 0 88.5 L 3 88.5 L 3 106.5 L 0 106.5 L 0 124.5 L 3 124.5 L 3 142.5 L 0 142.5 L 0 160.5 L 3 160.5 L 3 178.5 L 0 178.5 L 0 195 L 11 195 L 11 192 L 29 192 L 29 195 L 40 195 L 40 178.5 L 37 178.5 L 37 160.5 L 40 160.5 L 40 142.5 L 37 142.5 L 37 124.5 L 40 124.5 L 40 106.5 L 37 106.5 L 37 88.5 L 40 88.5 L 40 70.5 L 37 70.5 L 37 52.5 L 40 52.5 L 40 34.5 L 37 34.5 L 37 16.5 L 40 16.5 L 40 0 L 29 0 L 29 3 L 11 3 L 11 0 L 0 0 Z"
       id="back_outsideCutPath"
       stroke="#FF0000"
       stroke-width="0.1"
       style="stroke:#000000;stroke-width:0.0254;stroke-opacity:1;stroke-miterlimit:4;stroke-dasharray:none"
       vector-effect="non-scaling-stroke" />
    <path
       d="M 46 0 L 46 16.5 L 43 16.5 L 43 34.5 L 46 34.5 L 46 52.5 L 43 52.5 L 43 70.5 L 46 70.5 L 46 88.5 L 43 88.5 L 43 106.5 L 46 106.5 L 46 124.5 L 43 124.5 L 43 142.5 L 46 142.5 L 46 160.5 L 43 160.5 L 43 178.5 L 46 178.5 L 46 195 L 54 195 L 54 192 L 72 192 L 72 195 L 80 195 L 80 178.5 L 83 178.5 L 83 160.5 L 80 160.5 L 80 142.5 L 83 142.5 L 83 124.5 L 80 124.5 L 80 106.5 L 83 106.5 L 83 88.5 L 80 88.5 L 80 70.5 L 83 70.5 L 83 52.5 L 80 52.5 L 80 34.5 L 83 34.5 L 83 16.5 L 80 16.5 L 80 0 L 72 0 L 72 3 L 54 3 L 54 0 L 46 0 Z"
       id="right_outsideCutPath"
       stroke="#FF0000"
       stroke-width="0.1"
       style="stroke:#000000;stroke-width:0.0254;stroke-opacity:1;stroke-miterlimit:4;stroke-dasharray:none"
       vector-effect="non-scaling-stroke" />
    <path
       d="M 89 313 L 89 321 L 86 321 L 86 339 L 89 339 L 89 347 L 97 347 L 97 350 L 115 350 L 115 347 L 123 347 L 123 339 L 126 339 L 126 321 L 123 321 L 123 313 L 115 313 L 115 310 L 97 310 L 97 313 L 89 313 Z"
       id="bottom_outsideCutPath"
       stroke="#FF0000"
       stroke-width="0.1"
       style="stroke:#000000;stroke-width:0.0254;stroke-opacity:1;stroke-miterlimit:4;stroke-dasharray:none"
       vector-effect="non-scaling-stroke" />
  </g>
</svg>
