<?xml version="1.0" encoding="UTF-8" standalone="no"?>
<svg
   xmlns:dc="http://purl.org/dc/elements/1.1/"
   xmlns:cc="http://creativecommons.org/ns#"
   xmlns:rdf="http://www.w3.org/1999/02/22-rdf-syntax-ns#"
   xmlns:svg="http://www.w3.org/2000/svg"
   xmlns="http://www.w3.org/2000/svg"
   xmlns:sodipodi="http://sodipodi.sourceforge.net/DTD/sodipodi-0.dtd"
   xmlns:inkscape="http://www.inkscape.org/namespaces/inkscape"
   width="300.25mm"
   height="200.125mm"
   viewBox="0 0 300.25 200.125"
   version="1.1"
   preserveAspectRatio="xMidYMid meet"
   id="svg3743"
   sodipodi:docname="BulkBox10.svg"
   inkscape:version="0.92.4 (5da689c313, 2019-01-14)">
  <metadata
     id="metadata3749">
    <rdf:RDF>
      <cc:Work
         rdf:about="">
        <dc:format>image/svg+xml</dc:format>
        <dc:type
           rdf:resource="http://purl.org/dc/dcmitype/StillImage" />
      </cc:Work>
    </rdf:RDF>
  </metadata>
  <defs
     id="defs3747" />
  <sodipodi:namedview
     pagecolor="#ffffff"
     bordercolor="#666666"
     borderopacity="1"
     objecttolerance="10"
     gridtolerance="10"
     guidetolerance="10"
     inkscape:pageopacity="0"
     inkscape:pageshadow="2"
     inkscape:window-width="1920"
     inkscape:window-height="986"
     id="namedview3745"
     showgrid="false"
     inkscape:zoom="0.79276048"
     inkscape:cx="691.54764"
     inkscape:cy="362.78886"
     inkscape:window-x="-11"
     inkscape:window-y="-11"
     inkscape:window-maximized="1"
     inkscape:current-layer="svg3743" />
  <path
     sodipodi:nodetypes="cccccccccccccccccccccccc"
     inkscape:connector-curvature="0"
     style="font-size:12px;vector-effect:non-scaling-stroke;fill:none;fill-rule:evenodd;stroke:#000000;stroke-width:0.0254;stroke-linecap:round;stroke-miterlimit:4;stroke-dasharray:none;stroke-opacity:1"
     id="front_outsideCutPath"
     d="m 0,100.125 v 23 h 3 v 18 H 0 v 18 h 3 v 18 H 0 v 18 5 c 37.718078,0.21836 60.487591,0 95,0 h 5 v -23 h -3 v -18 h 3 v -18 h -3 v -18 h 3 v -18 -5 z" />
  <path
     sodipodi:nodetypes="cccccccccccccccccccccccc"
     inkscape:connector-curvature="0"
     style="font-size:12px;vector-effect:non-scaling-stroke;fill:none;fill-rule:evenodd;stroke:#000000;stroke-width:0.0254;stroke-linecap:round;stroke-miterlimit:4;stroke-dasharray:none;stroke-opacity:1"
     id="left_outsideCutPath"
     d="m 103.125,100.125 v 23 h -3 v 18 h 3 v 18 h -3 v 18 h 3 v 18 5 c 36.56298,0.17677 58.47165,0 92,0 h 2 v -23 h 3 v -18 h -3 v -18 h 3 v -18 h -3 v -18 -5 z" />
  <path
     sodipodi:nodetypes="cccccccccccccccccccccccc"
     inkscape:connector-curvature="0"
     style="font-size:12px;vector-effect:non-scaling-stroke;fill:none;fill-rule:evenodd;stroke:#000000;stroke-width:0.0254;stroke-linecap:round;stroke-miterlimit:4;stroke-dasharray:none;stroke-opacity:1"
     id="back_outsideCutPath"
     d="M 0,0 V 23 H 3 V 41 H 0 V 59 H 3 V 77 H 0 v 18 5 c 37.010089,0.21836 60.487591,0 95,0 h 5 V 77 H 97 V 59 h 3 V 41 H 97 V 23 h 3 V 5 0 Z" />
  <path
     sodipodi:nodetypes="cccccccccccccccccccccccc"
     inkscape:connector-curvature="0"
     style="font-size:12px;vector-effect:non-scaling-stroke;fill:none;fill-rule:evenodd;stroke:#000000;stroke-width:0.0254;stroke-linecap:round;stroke-miterlimit:4;stroke-dasharray:none;stroke-opacity:1"
     id="right_outsideCutPath"
     d="m 103.125,0 v 23 h -3 v 18 h 3 v 18 h -3 v 18 h 3 v 18 5 c 35.85499,0.17677 58.47165,0 92,0 h 2 V 77 h 3 V 59 h -3 V 41 h 3 V 23 h -3 V 5 0 Z" />
  <path
     style="fill:none;stroke:#000000;stroke-width:0.0254;stroke-linecap:butt;stroke-linejoin:miter;stroke-opacity:1;stroke-miterlimit:4;stroke-dasharray:none"
     d="M 0,200.125 H 197.125"
     id="path839"
     inkscape:connector-curvature="0" />
</svg>
