<?xml version="1.0" encoding="UTF-8" standalone="no"?>
<svg
   xmlns:dc="http://purl.org/dc/elements/1.1/"
   xmlns:cc="http://creativecommons.org/ns#"
   xmlns:rdf="http://www.w3.org/1999/02/22-rdf-syntax-ns#"
   xmlns:svg="http://www.w3.org/2000/svg"
   xmlns="http://www.w3.org/2000/svg"
   xmlns:sodipodi="http://sodipodi.sourceforge.net/DTD/sodipodi-0.dtd"
   xmlns:inkscape="http://www.inkscape.org/namespaces/inkscape"
   width="156mm"
   height="103mm"
   viewBox="0 0 156 103"
   version="1.1"
   preserveAspectRatio="xMidYMid meet"
   id="svg15"
   sodipodi:docname="CompleteBox.svg"
   inkscape:version="0.92.4 (5da689c313, 2019-01-14)">
  <metadata
     id="metadata21">
    <rdf:RDF>
      <cc:Work
         rdf:about="">
        <dc:format>image/svg+xml</dc:format>
        <dc:type
           rdf:resource="http://purl.org/dc/dcmitype/StillImage" />
      </cc:Work>
    </rdf:RDF>
  </metadata>
  <defs
     id="defs19" />
  <sodipodi:namedview
     pagecolor="#ffffff"
     bordercolor="#666666"
     borderopacity="1"
     objecttolerance="10"
     gridtolerance="10"
     guidetolerance="10"
     inkscape:pageopacity="0"
     inkscape:pageshadow="2"
     inkscape:window-width="1920"
     inkscape:window-height="1017"
     id="namedview17"
     showgrid="false"
     inkscape:zoom="1.6262323"
     inkscape:cx="300.69995"
     inkscape:cy="173.3894"
     inkscape:window-x="-8"
     inkscape:window-y="-8"
     inkscape:window-maximized="1"
     inkscape:current-layer="svgGroup" />
  <g
     id="svgGroup"
     stroke-linecap="round"
     fill-rule="evenodd"
     font-size="9pt"
     stroke="#000"
     stroke-width="0.25mm"
     fill="none"
     style="stroke:#000;stroke-width:0.25mm;fill:none">
    <path
       d="M 0 53 L 0 60 L 3 60 L 3 72 L 0 72 L 0 84 L 3 84 L 3 96 L 0 96 L 0 103 L 7 103 L 7 100 L 19 100 L 19 103 L 31 103 L 31 100 L 43 100 L 43 103 L 50 103 L 50 96 L 47 96 L 47 84 L 50 84 L 50 72 L 47 72 L 47 60 L 50 60 L 50 53 L 43 53 L 43 56 L 31 56 L 31 53 L 19 53 L 19 56 L 7 56 L 7 53 L 0 53 Z"
       id="front_outsideCutPath"
       stroke="#FF0000"
       stroke-width="0.1"
       style="stroke:#000000;stroke-width:0.0254;stroke-opacity:1;stroke-miterlimit:4;stroke-dasharray:none"
       vector-effect="non-scaling-stroke" />
    <path
       d="M 56 53 L 56 60 L 53 60 L 53 72 L 56 72 L 56 84 L 53 84 L 53 96 L 56 96 L 56 103 L 60 103 L 60 100 L 72 100 L 72 103 L 84 103 L 84 100 L 96 100 L 96 103 L 100 103 L 100 96 L 103 96 L 103 84 L 100 84 L 100 72 L 103 72 L 103 60 L 100 60 L 100 53 L 96 53 L 96 56 L 84 56 L 84 53 L 72 53 L 72 56 L 60 56 L 60 53 L 56 53 Z"
       id="left_outsideCutPath"
       stroke="#FF0000"
       stroke-width="0.1"
       style="stroke:#000000;stroke-width:0.0254;stroke-opacity:1;stroke-miterlimit:4;stroke-dasharray:none"
       vector-effect="non-scaling-stroke" />
    <path
       d="M 109 56 L 109 60 L 106 60 L 106 72 L 109 72 L 109 84 L 106 84 L 106 96 L 109 96 L 109 100 L 113 100 L 113 103 L 125 103 L 125 100 L 137 100 L 137 103 L 149 103 L 149 100 L 153 100 L 153 96 L 156 96 L 156 84 L 153 84 L 153 72 L 156 72 L 156 60 L 153 60 L 153 56 L 149 56 L 149 53 L 137 53 L 137 56 L 125 56 L 125 53 L 113 53 L 113 56 L 109 56 Z"
       id="top_outsideCutPath"
       stroke="#FF0000"
       stroke-width="0.1"
       style="stroke:#000000;stroke-width:0.0254;stroke-opacity:1;stroke-miterlimit:4;stroke-dasharray:none"
       vector-effect="non-scaling-stroke" />
    <path
       d="M 0 0 L 0 7 L 3 7 L 3 19 L 0 19 L 0 31 L 3 31 L 3 43 L 0 43 L 0 50 L 7 50 L 7 47 L 19 47 L 19 50 L 31 50 L 31 47 L 43 47 L 43 50 L 50 50 L 50 43 L 47 43 L 47 31 L 50 31 L 50 19 L 47 19 L 47 7 L 50 7 L 50 0 L 43 0 L 43 3 L 31 3 L 31 0 L 19 0 L 19 3 L 7 3 L 7 0 L 0 0 Z"
       id="back_outsideCutPath"
       stroke="#FF0000"
       stroke-width="0.1"
       style="stroke:#000000;stroke-width:0.0254;stroke-opacity:1;stroke-miterlimit:4;stroke-dasharray:none"
       vector-effect="non-scaling-stroke" />
    <path
       d="M 56 0 L 56 7 L 53 7 L 53 19 L 56 19 L 56 31 L 53 31 L 53 43 L 56 43 L 56 50 L 60 50 L 60 47 L 72 47 L 72 50 L 84 50 L 84 47 L 96 47 L 96 50 L 100 50 L 100 43 L 103 43 L 103 31 L 100 31 L 100 19 L 103 19 L 103 7 L 100 7 L 100 0 L 96 0 L 96 3 L 84 3 L 84 0 L 72 0 L 72 3 L 60 3 L 60 0 L 56 0 Z"
       id="right_outsideCutPath"
       stroke="#FF0000"
       stroke-width="0.1"
       style="stroke:#000000;stroke-width:0.0254;stroke-opacity:1;stroke-miterlimit:4;stroke-dasharray:none"
       vector-effect="non-scaling-stroke" />
    <path
       d="M 109 3 L 109 7 L 106 7 L 106 19 L 109 19 L 109 31 L 106 31 L 106 43 L 109 43 L 109 47 L 113 47 L 113 50 L 125 50 L 125 47 L 137 47 L 137 50 L 149 50 L 149 47 L 153 47 L 153 43 L 156 43 L 156 31 L 153 31 L 153 19 L 156 19 L 156 7 L 153 7 L 153 3 L 149 3 L 149 0 L 137 0 L 137 3 L 125 3 L 125 0 L 113 0 L 113 3 L 109 3 Z"
       id="bottom_outsideCutPath"
       stroke="#FF0000"
       stroke-width="0.1"
       style="stroke:#000000;stroke-width:0.0254;stroke-opacity:1;stroke-miterlimit:4;stroke-dasharray:none"
       vector-effect="non-scaling-stroke" />
    <circle
       style="fill:none;fill-opacity:1;stroke:#000000;stroke-width:0.0254;stroke-miterlimit:4;stroke-dasharray:none;stroke-opacity:1"
       id="path853"
       cx="25"
       cy="39.629467"
       r="3.4999998" />
  </g>
</svg>
