<?xml version="1.0" encoding="UTF-8" standalone="no"?>
<svg
   xmlns:dc="http://purl.org/dc/elements/1.1/"
   xmlns:cc="http://creativecommons.org/ns#"
   xmlns:rdf="http://www.w3.org/1999/02/22-rdf-syntax-ns#"
   xmlns:svg="http://www.w3.org/2000/svg"
   xmlns="http://www.w3.org/2000/svg"
   xmlns:sodipodi="http://sodipodi.sourceforge.net/DTD/sodipodi-0.dtd"
   xmlns:inkscape="http://www.inkscape.org/namespaces/inkscape"
   width="156mm"
   height="103mm"
   viewBox="0 0 156 103"
   version="1.1"
   preserveAspectRatio="xMidYMid meet"
   id="svg13"
   sodipodi:docname="HollowBox.svg"
   inkscape:version="0.92.4 (5da689c313, 2019-01-14)">
  <metadata
     id="metadata19">
    <rdf:RDF>
      <cc:Work
         rdf:about="">
        <dc:format>image/svg+xml</dc:format>
        <dc:type
           rdf:resource="http://purl.org/dc/dcmitype/StillImage" />
      </cc:Work>
    </rdf:RDF>
  </metadata>
  <defs
     id="defs17" />
  <sodipodi:namedview
     pagecolor="#ffffff"
     bordercolor="#666666"
     borderopacity="1"
     objecttolerance="10"
     gridtolerance="10"
     guidetolerance="10"
     inkscape:pageopacity="0"
     inkscape:pageshadow="2"
     inkscape:window-width="1920"
     inkscape:window-height="1017"
     id="namedview15"
     showgrid="false"
     inkscape:zoom="1.1499199"
     inkscape:cx="-100.66837"
     inkscape:cy="267.32712"
     inkscape:window-x="-8"
     inkscape:window-y="-8"
     inkscape:window-maximized="1"
     inkscape:current-layer="svgGroup" />
  <g
     id="svgGroup"
     stroke-linecap="round"
     fill-rule="evenodd"
     font-size="9pt"
     stroke="#000"
     stroke-width="0.25mm"
     fill="none"
     style="stroke:#000;stroke-width:0.25mm;fill:none">
    <path
       d="m 0,53 v 7 H 3 V 72 H 0 V 84 H 3 V 96 H 0 v 7 c 18.210744,0.075 32.602742,0 50,0 V 96 H 47 V 84 h 3 V 72 H 47 V 60 h 3 v -7 z"
       id="front_outsideCutPath"
       style="vector-effect:non-scaling-stroke;stroke:#000000;stroke-width:0.0254;stroke-opacity:1;stroke-miterlimit:4;stroke-dasharray:none"
       inkscape:connector-curvature="0"
       sodipodi:nodetypes="ccccccccccccccccccccc" />
    <path
       d="m 56,53 v 7 h -3 v 12 h 3 v 12 h -3 v 12 h 3 v 7 c 15.148413,0.10263 30.234513,0 44,0 v -7 h 3 V 84 h -3 V 72 h 3 V 60 h -3 v -7 z"
       id="left_outsideCutPath"
       style="vector-effect:non-scaling-stroke;stroke:#000000;stroke-width:0.0254;stroke-opacity:1;stroke-miterlimit:4;stroke-dasharray:none"
       inkscape:connector-curvature="0"
       sodipodi:nodetypes="ccccccccccccccccccccc" />
    <path
       d="M 0,0 V 7 H 3 V 19 H 0 V 31 H 3 V 43 H 0 v 7 c 20.081761,0.156317 32.602742,0 50,0 V 43 H 47 V 31 h 3 V 19 H 47 V 7 h 3 V 0 Z"
       id="back_outsideCutPath"
       style="vector-effect:non-scaling-stroke;stroke:#000000;stroke-width:0.0254;stroke-opacity:1;stroke-miterlimit:4;stroke-dasharray:none"
       inkscape:connector-curvature="0"
       sodipodi:nodetypes="ccccccccccccccccccccc" />
    <path
       d="m 56,0 v 7 h -3 v 12 h 3 v 12 h -3 v 12 h 3 v 7 c 16.124595,0.10263 29.421027,0.08135 44,0 v -7 h 3 V 31 h -3 V 19 h 3 V 7 h -3 V 0 Z"
       id="right_outsideCutPath"
       style="vector-effect:non-scaling-stroke;stroke:#000000;stroke-width:0.0254;stroke-opacity:1;stroke-miterlimit:4;stroke-dasharray:none"
       inkscape:connector-curvature="0"
       sodipodi:nodetypes="ccccccccccccccccccccc" />
  </g>
</svg>
